G04*
G04 #@! TF.GenerationSoftware,Altium Limited,Altium Designer,24.8.2 (39)*
G04*
G04 Layer_Physical_Order=2*
G04 Layer_Color=16711680*
%FSLAX25Y25*%
%MOIN*%
G70*
G04*
G04 #@! TF.SameCoordinates,4D4EA92B-AFD7-4347-A045-B9991782E9FC*
G04*
G04*
G04 #@! TF.FilePolarity,Positive*
G04*
G01*
G75*
%ADD12C,0.01000*%
%ADD81C,0.01500*%
%ADD82C,0.02000*%
%ADD84C,0.01968*%
%ADD85C,0.02362*%
G36*
X275590Y295276D02*
Y283465D01*
X283465Y275590D01*
X295276D01*
X297683Y273183D01*
Y128392D01*
X295276Y125984D01*
X283465D01*
X275591Y118110D01*
X275590D01*
Y106299D01*
X273183Y103892D01*
X128392D01*
X125984Y106299D01*
Y118110D01*
X118110Y125984D01*
X106299D01*
X103892Y128392D01*
Y273183D01*
X106299Y275590D01*
X118110D01*
Y275591D01*
X125984Y283465D01*
Y295276D01*
X128392Y297683D01*
X273183D01*
X275590Y295276D01*
D02*
G37*
%LPC*%
G36*
X294434Y272181D02*
X293566D01*
X292764Y271849D01*
X292700Y271784D01*
X282300D01*
X282236Y271849D01*
X281434Y272181D01*
X280566D01*
X279765Y271849D01*
X279151Y271235D01*
X278819Y270434D01*
Y269566D01*
X279151Y268764D01*
X279765Y268151D01*
X280566Y267819D01*
X281434D01*
X282236Y268151D01*
X282300Y268216D01*
X292700D01*
X292764Y268151D01*
X293566Y267819D01*
X294434D01*
X295235Y268151D01*
X295849Y268764D01*
X296181Y269566D01*
Y270434D01*
X295849Y271235D01*
X295235Y271849D01*
X294434Y272181D01*
D02*
G37*
G36*
X289224Y260187D02*
X288634D01*
X288088Y259961D01*
X287671Y259543D01*
X287445Y258998D01*
Y258407D01*
X287671Y257862D01*
X288088Y257445D01*
X288634Y257219D01*
X289224D01*
X289770Y257445D01*
X290187Y257862D01*
X290413Y258407D01*
Y258998D01*
X290187Y259543D01*
X289770Y259961D01*
X289224Y260187D01*
D02*
G37*
G36*
X253934Y263181D02*
X253066D01*
X252264Y262849D01*
X251651Y262235D01*
X251509Y261893D01*
X244607Y254991D01*
X244265Y254849D01*
X243651Y254236D01*
X243319Y253434D01*
Y252566D01*
X243651Y251764D01*
X244265Y251151D01*
X244630Y251000D01*
X244747Y250410D01*
X241518Y247181D01*
X241066D01*
X240265Y246849D01*
X239651Y246235D01*
X239319Y245434D01*
Y244566D01*
X239651Y243764D01*
X240265Y243151D01*
X241066Y242819D01*
X241934D01*
X242188Y242924D01*
X242571Y242541D01*
X242319Y241934D01*
Y241066D01*
X242651Y240265D01*
X243265Y239651D01*
X244066Y239319D01*
X244934D01*
X245736Y239651D01*
X246349Y240265D01*
X246681Y241066D01*
Y241518D01*
X258633Y253471D01*
X259445D01*
X259765Y253151D01*
X260566Y252819D01*
X261434D01*
X262235Y253151D01*
X262849Y253765D01*
X263181Y254566D01*
Y255434D01*
X262849Y256236D01*
X262235Y256849D01*
X261434Y257181D01*
X260566D01*
X259765Y256849D01*
X259529Y256614D01*
X259317Y256644D01*
X259243Y257101D01*
X259244Y257159D01*
X259849Y257765D01*
X260181Y258566D01*
Y259434D01*
X259849Y260236D01*
X259236Y260849D01*
X258434Y261181D01*
X257566D01*
X256765Y260849D01*
X256292Y260377D01*
X255788Y260406D01*
X255681Y260566D01*
Y261434D01*
X255349Y262235D01*
X254735Y262849D01*
X253934Y263181D01*
D02*
G37*
G36*
X192434Y268181D02*
X191566D01*
X190764Y267849D01*
X190151Y267235D01*
X189819Y266434D01*
Y265566D01*
X190151Y264764D01*
X190216Y264700D01*
Y254300D01*
X190151Y254236D01*
X189819Y253434D01*
Y252566D01*
X190151Y251764D01*
X190764Y251151D01*
X191566Y250819D01*
X192434D01*
X193236Y251151D01*
X193849Y251764D01*
X194181Y252566D01*
Y253434D01*
X193849Y254236D01*
X193784Y254300D01*
Y264700D01*
X193849Y264764D01*
X194181Y265566D01*
Y266434D01*
X193849Y267235D01*
X193236Y267849D01*
X192434Y268181D01*
D02*
G37*
G36*
X178934Y272181D02*
X178066D01*
X177264Y271849D01*
X176651Y271235D01*
X176319Y270434D01*
Y269566D01*
X176480Y269178D01*
X176471Y269131D01*
Y251555D01*
X176151Y251236D01*
X175819Y250434D01*
Y249566D01*
X176151Y248764D01*
X176765Y248151D01*
X177566Y247819D01*
X178434D01*
X179235Y248151D01*
X179849Y248764D01*
X180181Y249566D01*
Y250434D01*
X179849Y251236D01*
X179529Y251555D01*
Y268066D01*
X179736Y268151D01*
X180349Y268764D01*
X180681Y269566D01*
Y270434D01*
X180349Y271235D01*
X179736Y271849D01*
X178934Y272181D01*
D02*
G37*
G36*
X223434Y271181D02*
X222566D01*
X221764Y270849D01*
X221151Y270235D01*
X220819Y269434D01*
Y268566D01*
X221151Y267764D01*
X221764Y267151D01*
X222566Y266819D01*
X223018D01*
X230500Y259337D01*
Y249163D01*
X221518Y240181D01*
X221066D01*
X220265Y239849D01*
X219651Y239235D01*
X219319Y238434D01*
Y237566D01*
X219651Y236765D01*
X220265Y236151D01*
X221066Y235819D01*
X221934D01*
X222736Y236151D01*
X223349Y236765D01*
X223681Y237566D01*
Y238018D01*
X233111Y247448D01*
X233442Y247944D01*
X233559Y248529D01*
Y259971D01*
X233442Y260556D01*
X233111Y261052D01*
X225181Y268982D01*
Y269434D01*
X224849Y270235D01*
X224236Y270849D01*
X223434Y271181D01*
D02*
G37*
G36*
X178934Y235681D02*
X178066D01*
X177264Y235349D01*
X176651Y234735D01*
X176319Y233934D01*
Y233066D01*
X176320Y233065D01*
X176087Y232717D01*
X175971Y232131D01*
Y219555D01*
X175651Y219235D01*
X175319Y218434D01*
Y217566D01*
X175651Y216764D01*
X176265Y216151D01*
X177066Y215819D01*
X177934D01*
X178735Y216151D01*
X179349Y216764D01*
X179681Y217566D01*
Y218434D01*
X179349Y219235D01*
X179029Y219555D01*
Y231359D01*
X179736Y231651D01*
X180349Y232264D01*
X180681Y233066D01*
Y233934D01*
X180349Y234735D01*
X179736Y235349D01*
X178934Y235681D01*
D02*
G37*
G36*
X265934Y203181D02*
X265066D01*
X264264Y202849D01*
X264200Y202784D01*
X226426D01*
X226361Y202849D01*
X225560Y203181D01*
X224692D01*
X223890Y202849D01*
X223826Y202784D01*
X213426D01*
X213362Y202849D01*
X212560Y203181D01*
X211692D01*
X210891Y202849D01*
X210277Y202236D01*
X209945Y201434D01*
Y200566D01*
X210277Y199765D01*
X210891Y199151D01*
X211692Y198819D01*
X212560D01*
X213362Y199151D01*
X213426Y199216D01*
X223826D01*
X223890Y199151D01*
X224692Y198819D01*
X225560D01*
X226361Y199151D01*
X226426Y199216D01*
X264200D01*
X264264Y199151D01*
X265066Y198819D01*
X265934D01*
X266736Y199151D01*
X267349Y199765D01*
X267681Y200566D01*
Y201434D01*
X267349Y202236D01*
X266736Y202849D01*
X265934Y203181D01*
D02*
G37*
G36*
X128434Y221181D02*
X127566D01*
X126765Y220849D01*
X126151Y220235D01*
X125819Y219434D01*
Y218566D01*
X126151Y217764D01*
X126765Y217151D01*
X126971Y217066D01*
Y204055D01*
X126651Y203735D01*
X126319Y202934D01*
Y202066D01*
X126651Y201265D01*
X127264Y200651D01*
X128066Y200319D01*
X128934D01*
X129736Y200651D01*
X130349Y201265D01*
X130681Y202066D01*
Y202934D01*
X130349Y203735D01*
X130029Y204055D01*
Y218131D01*
X130020Y218178D01*
X130181Y218566D01*
Y219434D01*
X129849Y220235D01*
X129235Y220849D01*
X128434Y221181D01*
D02*
G37*
G36*
X158934Y183862D02*
X158066D01*
X157264Y183530D01*
X156651Y182917D01*
X156319Y182115D01*
Y181247D01*
X156651Y180446D01*
X156971Y180126D01*
Y176555D01*
X156651Y176235D01*
X156319Y175434D01*
Y174566D01*
X156651Y173765D01*
X157264Y173151D01*
X158066Y172819D01*
X158934D01*
X159736Y173151D01*
X160349Y173765D01*
X160681Y174566D01*
Y175434D01*
X160349Y176235D01*
X160029Y176555D01*
Y180126D01*
X160349Y180446D01*
X160681Y181247D01*
Y182115D01*
X160349Y182917D01*
X159736Y183530D01*
X158934Y183862D01*
D02*
G37*
G36*
X143934Y181681D02*
X143066D01*
X142264Y181349D01*
X141651Y180736D01*
X141319Y179934D01*
Y179066D01*
X141651Y178264D01*
X142264Y177651D01*
X142471Y177566D01*
Y176055D01*
X142151Y175735D01*
X141819Y174934D01*
Y174066D01*
X142151Y173265D01*
X142764Y172651D01*
X143566Y172319D01*
X144434D01*
X145236Y172651D01*
X145849Y173265D01*
X146181Y174066D01*
Y174934D01*
X145849Y175735D01*
X145529Y176055D01*
Y178631D01*
X145520Y178678D01*
X145681Y179066D01*
Y179934D01*
X145349Y180736D01*
X144736Y181349D01*
X143934Y181681D01*
D02*
G37*
G36*
X178934Y191181D02*
X178066D01*
X177264Y190849D01*
X176651Y190235D01*
X176319Y189434D01*
Y188566D01*
X176651Y187765D01*
X176971Y187445D01*
Y175634D01*
X176018Y174681D01*
X175566D01*
X174765Y174349D01*
X174151Y173735D01*
X173819Y172934D01*
Y172066D01*
X174151Y171265D01*
X174765Y170651D01*
X175566Y170319D01*
X176434D01*
X177235Y170651D01*
X177849Y171265D01*
X178181Y172066D01*
Y172518D01*
X179581Y173919D01*
X179913Y174415D01*
X180029Y175000D01*
Y187445D01*
X180349Y187765D01*
X180681Y188566D01*
Y189434D01*
X180349Y190235D01*
X179736Y190849D01*
X178934Y191181D01*
D02*
G37*
G36*
X291339Y241200D02*
X290050Y241030D01*
X288849Y240533D01*
X287818Y239742D01*
X287026Y238710D01*
X286529Y237509D01*
X286359Y236221D01*
Y165354D01*
X286529Y164066D01*
X287026Y162864D01*
X287818Y161833D01*
X288849Y161042D01*
X290050Y160544D01*
X291339Y160375D01*
X292627Y160544D01*
X293828Y161042D01*
X294860Y161833D01*
X295651Y162864D01*
X296148Y164066D01*
X296318Y165354D01*
Y236221D01*
X296148Y237509D01*
X295651Y238710D01*
X294860Y239742D01*
X293828Y240533D01*
X292627Y241030D01*
X291339Y241200D01*
D02*
G37*
G36*
X208434Y167181D02*
X207566D01*
X206765Y166849D01*
X206151Y166235D01*
X205819Y165434D01*
Y164566D01*
X206151Y163765D01*
X206471Y163445D01*
Y160555D01*
X206151Y160236D01*
X205819Y159434D01*
Y158566D01*
X206151Y157764D01*
X206765Y157151D01*
X207566Y156819D01*
X208434D01*
X209236Y157151D01*
X209849Y157764D01*
X210181Y158566D01*
Y159434D01*
X209849Y160236D01*
X209529Y160555D01*
Y163445D01*
X209849Y163765D01*
X210181Y164566D01*
Y165434D01*
X209849Y166235D01*
X209236Y166849D01*
X208434Y167181D01*
D02*
G37*
G36*
X263934Y170181D02*
X263066D01*
X262264Y169849D01*
X261651Y169236D01*
X261319Y168434D01*
Y168342D01*
X253761Y160784D01*
X253300D01*
X253236Y160849D01*
X252434Y161181D01*
X251566D01*
X250764Y160849D01*
X250151Y160236D01*
X249819Y159434D01*
Y158566D01*
X250151Y157764D01*
X250764Y157151D01*
X251566Y156819D01*
X252434D01*
X253236Y157151D01*
X253300Y157216D01*
X254500D01*
X255183Y157352D01*
X255762Y157738D01*
X263319Y165296D01*
X263819Y165088D01*
Y164566D01*
X264151Y163765D01*
X264471Y163445D01*
Y162634D01*
X262018Y160181D01*
X261566D01*
X260765Y159849D01*
X260151Y159236D01*
X259819Y158434D01*
Y157566D01*
X260151Y156764D01*
X260765Y156151D01*
X261566Y155819D01*
X262434D01*
X263235Y156151D01*
X263849Y156764D01*
X264181Y157566D01*
Y158018D01*
X267081Y160919D01*
X267413Y161415D01*
X267529Y162000D01*
Y163445D01*
X267849Y163765D01*
X268181Y164566D01*
Y165434D01*
X267849Y166235D01*
X267235Y166849D01*
X266434Y167181D01*
X266063D01*
X265681Y167566D01*
Y168434D01*
X265349Y169236D01*
X264736Y169849D01*
X263934Y170181D01*
D02*
G37*
G36*
X265434Y143181D02*
X264566D01*
X263765Y142849D01*
X263700Y142784D01*
X253300D01*
X253236Y142849D01*
X252434Y143181D01*
X251566D01*
X250764Y142849D01*
X250151Y142236D01*
X249819Y141434D01*
Y140566D01*
X250151Y139764D01*
X250764Y139151D01*
X251566Y138819D01*
X252434D01*
X253236Y139151D01*
X253300Y139216D01*
X263700D01*
X263765Y139151D01*
X264566Y138819D01*
X265434D01*
X266235Y139151D01*
X266849Y139764D01*
X267181Y140566D01*
Y141434D01*
X266849Y142236D01*
X266235Y142849D01*
X265434Y143181D01*
D02*
G37*
%LPD*%
D12*
X158500Y175000D02*
Y181681D01*
X143500Y179131D02*
Y179500D01*
Y179131D02*
X144000Y178631D01*
Y174500D02*
Y178631D01*
X176000Y172500D02*
X178500Y175000D01*
Y189000D01*
X177500Y232131D02*
X178500Y233131D01*
X177500Y218000D02*
Y232131D01*
X178500Y233131D02*
Y233500D01*
X221500Y238000D02*
X232029Y248529D01*
Y259971D01*
X244500Y241500D02*
X258000Y255000D01*
X261000D01*
X257819Y258819D02*
X258000Y259000D01*
X255319Y258819D02*
X257819D01*
X241500Y245000D02*
X255319Y258819D01*
X223000Y269000D02*
X232029Y259971D01*
X262000Y158000D02*
X266000Y162000D01*
Y165000D01*
X128500Y202500D02*
Y218131D01*
X128000Y218631D02*
X128500Y218131D01*
X128000Y218631D02*
Y219000D01*
X178500Y269631D02*
Y270000D01*
X178000Y250000D02*
Y269131D01*
X178500Y269631D01*
X208000Y159000D02*
Y165000D01*
D81*
X212126Y201000D02*
X225126D01*
X265500D01*
X281000Y270000D02*
X294000D01*
X252000Y159000D02*
X254500D01*
X263500Y168000D01*
X252000Y141000D02*
X265000D01*
X192000Y253000D02*
Y266000D01*
D82*
X245500Y253000D02*
X253500Y261000D01*
D84*
X288929Y258703D02*
D03*
D85*
X218574Y203676D02*
D03*
X294000Y270000D02*
D03*
X281000D02*
D03*
X253500Y261000D02*
D03*
X265500Y201000D02*
D03*
X263500Y168000D02*
D03*
X252000Y159000D02*
D03*
X265000Y141000D02*
D03*
X252000D02*
D03*
X192000Y266000D02*
D03*
X245500Y253000D02*
D03*
X192000D02*
D03*
X212126Y201000D02*
D03*
X225126D02*
D03*
X158500Y181681D02*
D03*
Y175000D02*
D03*
X143500Y179500D02*
D03*
X144000Y174500D02*
D03*
X292000Y273000D02*
D03*
X294000Y244000D02*
D03*
X245126Y229000D02*
D03*
X247829Y174409D02*
D03*
X245126Y225500D02*
D03*
X242329Y174409D02*
D03*
X238126Y192000D02*
D03*
X242000Y273000D02*
D03*
X232126Y209500D02*
D03*
X238000Y155000D02*
D03*
X274000Y151000D02*
D03*
X263318Y105350D02*
D03*
X251000Y119000D02*
D03*
X230000Y118000D02*
D03*
X213000Y274000D02*
D03*
X218000Y260000D02*
D03*
X218726Y216500D02*
D03*
X178281Y240781D02*
D03*
X175000Y284000D02*
D03*
X115000Y250000D02*
D03*
X124000Y227000D02*
D03*
X123000Y239000D02*
D03*
X218626Y195500D02*
D03*
Y186000D02*
D03*
Y190500D02*
D03*
X215626Y188000D02*
D03*
X218626Y176500D02*
D03*
Y181000D02*
D03*
X221126Y169500D02*
D03*
X230000Y134000D02*
D03*
X215126Y177000D02*
D03*
X214626Y183500D02*
D03*
X222000Y126000D02*
D03*
X210776Y215750D02*
D03*
X172000Y206000D02*
D03*
X158000D02*
D03*
X116000Y210000D02*
D03*
X207626Y186500D02*
D03*
Y182500D02*
D03*
Y189000D02*
D03*
X211626Y178500D02*
D03*
X214000Y118000D02*
D03*
Y134000D02*
D03*
X158000Y203000D02*
D03*
X172000D02*
D03*
X178500Y189000D02*
D03*
Y233500D02*
D03*
X221500Y238000D02*
D03*
X177500Y218000D02*
D03*
X244500Y241500D02*
D03*
X241500Y245000D02*
D03*
X223000Y269000D02*
D03*
X266000Y165000D02*
D03*
X128000Y219000D02*
D03*
X178500Y270000D02*
D03*
X176000Y172500D02*
D03*
X128500Y202500D02*
D03*
X178000Y250000D02*
D03*
X261000Y255000D02*
D03*
X258000Y259000D02*
D03*
X262000Y158000D02*
D03*
X208000Y165000D02*
D03*
Y159000D02*
D03*
M02*
