M48
;Layer_Color=9474304
;FILE_FORMAT=2:5
INCH,LZ
;TYPE=PLATED
T01F00S00C0.01181
;TYPE=NON_PLATED
T02F00S00C0.01968
%
T01
X0214Y0118
X023Y0118
X023Y0134
X0222Y0126
X0214Y0134
X0252Y0141
X0265Y0141
X0274Y0151
X0238Y0155
X0251Y0119
X0263318Y010535
X0262Y0158
X0252Y0159
X0247829Y0174409
X0242329Y0174409
X0238126Y0192
X0218626Y01905
X0218626Y0186
X0215626Y0188
X0214626Y01835
X0218626Y0181
X0218626Y01765
X0215126Y0177
X0211626Y01785
X0207626Y01825
X0207626Y01865
X0207626Y0189
X0212126Y0201
X0218574Y0203676
X0218626Y01955
X0225126Y0201
X0232126Y02095
X0218726Y02165
X0210776Y021575
X02215Y0238
X0218Y026
X0223Y0269
X0213Y0274
X0192Y0266
X0192Y0253
X0178Y025
X0178281Y0240781
X01785Y02335
X01775Y0218
X0172Y0206
X0172Y0203
X0158Y0203
X0158Y0206
X01585Y0181681
X01585Y0175
X0176Y01725
X01785Y0189
X0208Y0165
X0208Y0159
X0221126Y01695
X02635Y0168
X0266Y0165
X02655Y0201
X0245126Y02255
X0245126Y0229
X02445Y02415
X02415Y0245
X02455Y0253
X02535Y0261
X0258Y0259
X0261Y0255
X0281Y027
X0294Y027
X0292Y0273
X0294Y0244
X0242Y0273
X01785Y027
X0175Y0284
X0115Y025
X0123Y0239
X0124Y0227
X0128Y0219
X01285Y02025
X0116Y021
X01435Y01795
X0144Y01745
T02
X0288929Y0258703
M30
