G04*
G04 #@! TF.GenerationSoftware,Altium Limited,Altium Designer,24.8.2 (39)*
G04*
G04 Layer_Color=8388736*
%FSLAX25Y25*%
%MOIN*%
G70*
G04*
G04 #@! TF.SameCoordinates,4D4EA92B-AFD7-4347-A045-B9991782E9FC*
G04*
G04*
G04 #@! TF.FilePolarity,Negative*
G04*
G01*
G75*
%ADD45R,0.03950X0.01981*%
G04:AMPARAMS|DCode=46|XSize=43mil|YSize=38mil|CornerRadius=11.5mil|HoleSize=0mil|Usage=FLASHONLY|Rotation=180.000|XOffset=0mil|YOffset=0mil|HoleType=Round|Shape=RoundedRectangle|*
%AMROUNDEDRECTD46*
21,1,0.04300,0.01500,0,0,180.0*
21,1,0.02000,0.03800,0,0,180.0*
1,1,0.02300,-0.01000,0.00750*
1,1,0.02300,0.01000,0.00750*
1,1,0.02300,0.01000,-0.00750*
1,1,0.02300,-0.01000,-0.00750*
%
%ADD46ROUNDEDRECTD46*%
G04:AMPARAMS|DCode=47|XSize=47.37mil|YSize=39.5mil|CornerRadius=0mil|HoleSize=0mil|Usage=FLASHONLY|Rotation=0.000|XOffset=0mil|YOffset=0mil|HoleType=Round|Shape=Octagon|*
%AMOCTAGOND47*
4,1,8,0.02368,-0.00987,0.02368,0.00987,0.01381,0.01975,-0.01381,0.01975,-0.02368,0.00987,-0.02368,-0.00987,-0.01381,-0.01975,0.01381,-0.01975,0.02368,-0.00987,0.0*
%
%ADD47OCTAGOND47*%

G04:AMPARAMS|DCode=48|XSize=88mil|YSize=45.4mil|CornerRadius=5.87mil|HoleSize=0mil|Usage=FLASHONLY|Rotation=270.000|XOffset=0mil|YOffset=0mil|HoleType=Round|Shape=RoundedRectangle|*
%AMROUNDEDRECTD48*
21,1,0.08800,0.03366,0,0,270.0*
21,1,0.07626,0.04540,0,0,270.0*
1,1,0.01174,-0.01683,-0.03813*
1,1,0.01174,-0.01683,0.03813*
1,1,0.01174,0.01683,0.03813*
1,1,0.01174,0.01683,-0.03813*
%
%ADD48ROUNDEDRECTD48*%
G04:AMPARAMS|DCode=49|XSize=48mil|YSize=39.5mil|CornerRadius=11.87mil|HoleSize=0mil|Usage=FLASHONLY|Rotation=0.000|XOffset=0mil|YOffset=0mil|HoleType=Round|Shape=RoundedRectangle|*
%AMROUNDEDRECTD49*
21,1,0.04800,0.01575,0,0,0.0*
21,1,0.02425,0.03950,0,0,0.0*
1,1,0.02375,0.01213,-0.00787*
1,1,0.02375,-0.01213,-0.00787*
1,1,0.02375,-0.01213,0.00787*
1,1,0.02375,0.01213,0.00787*
%
%ADD49ROUNDEDRECTD49*%
%ADD50R,0.03162X0.04737*%
G04:AMPARAMS|DCode=51|XSize=71.39mil|YSize=30.84mil|CornerRadius=5.71mil|HoleSize=0mil|Usage=FLASHONLY|Rotation=180.000|XOffset=0mil|YOffset=0mil|HoleType=Round|Shape=RoundedRectangle|*
%AMROUNDEDRECTD51*
21,1,0.07139,0.01941,0,0,180.0*
21,1,0.05996,0.03084,0,0,180.0*
1,1,0.01143,-0.02998,0.00971*
1,1,0.01143,0.02998,0.00971*
1,1,0.01143,0.02998,-0.00971*
1,1,0.01143,-0.02998,-0.00971*
%
%ADD51ROUNDEDRECTD51*%
%ADD52R,0.04737X0.03950*%
%ADD53R,0.06312X0.03556*%
%ADD54R,0.02449X0.03248*%
%ADD55R,0.03162X0.06902*%
G04:AMPARAMS|DCode=56|XSize=43mil|YSize=38mil|CornerRadius=11.5mil|HoleSize=0mil|Usage=FLASHONLY|Rotation=270.000|XOffset=0mil|YOffset=0mil|HoleType=Round|Shape=RoundedRectangle|*
%AMROUNDEDRECTD56*
21,1,0.04300,0.01500,0,0,270.0*
21,1,0.02000,0.03800,0,0,270.0*
1,1,0.02300,-0.00750,-0.01000*
1,1,0.02300,-0.00750,0.01000*
1,1,0.02300,0.00750,0.01000*
1,1,0.02300,0.00750,-0.01000*
%
%ADD56ROUNDEDRECTD56*%
G04:AMPARAMS|DCode=57|XSize=48mil|YSize=39.5mil|CornerRadius=11.87mil|HoleSize=0mil|Usage=FLASHONLY|Rotation=270.000|XOffset=0mil|YOffset=0mil|HoleType=Round|Shape=RoundedRectangle|*
%AMROUNDEDRECTD57*
21,1,0.04800,0.01575,0,0,270.0*
21,1,0.02425,0.03950,0,0,270.0*
1,1,0.02375,-0.00787,-0.01213*
1,1,0.02375,-0.00787,0.01213*
1,1,0.02375,0.00787,0.01213*
1,1,0.02375,0.00787,-0.01213*
%
%ADD57ROUNDEDRECTD57*%
G04:AMPARAMS|DCode=58|XSize=27.29mil|YSize=25.72mil|CornerRadius=6.22mil|HoleSize=0mil|Usage=FLASHONLY|Rotation=90.000|XOffset=0mil|YOffset=0mil|HoleType=Round|Shape=RoundedRectangle|*
%AMROUNDEDRECTD58*
21,1,0.02729,0.01329,0,0,90.0*
21,1,0.01486,0.02572,0,0,90.0*
1,1,0.01243,0.00664,0.00743*
1,1,0.01243,0.00664,-0.00743*
1,1,0.01243,-0.00664,-0.00743*
1,1,0.01243,-0.00664,0.00743*
%
%ADD58ROUNDEDRECTD58*%
%ADD59R,0.05524X0.02769*%
G04:AMPARAMS|DCode=60|XSize=67.06mil|YSize=39.5mil|CornerRadius=4.79mil|HoleSize=0mil|Usage=FLASHONLY|Rotation=270.000|XOffset=0mil|YOffset=0mil|HoleType=Round|Shape=RoundedRectangle|*
%AMROUNDEDRECTD60*
21,1,0.06706,0.02992,0,0,270.0*
21,1,0.05748,0.03950,0,0,270.0*
1,1,0.00957,-0.01496,-0.02874*
1,1,0.00957,-0.01496,0.02874*
1,1,0.00957,0.01496,0.02874*
1,1,0.00957,0.01496,-0.02874*
%
%ADD60ROUNDEDRECTD60*%
G04:AMPARAMS|DCode=61|XSize=58mil|YSize=58mil|CornerRadius=16.5mil|HoleSize=0mil|Usage=FLASHONLY|Rotation=180.000|XOffset=0mil|YOffset=0mil|HoleType=Round|Shape=RoundedRectangle|*
%AMROUNDEDRECTD61*
21,1,0.05800,0.02500,0,0,180.0*
21,1,0.02500,0.05800,0,0,180.0*
1,1,0.03300,-0.01250,0.01250*
1,1,0.03300,0.01250,0.01250*
1,1,0.03300,0.01250,-0.01250*
1,1,0.03300,-0.01250,-0.01250*
%
%ADD61ROUNDEDRECTD61*%
%ADD62R,0.07099X0.14580*%
G04:AMPARAMS|DCode=63|XSize=56.5mil|YSize=45.4mil|CornerRadius=5.87mil|HoleSize=0mil|Usage=FLASHONLY|Rotation=270.000|XOffset=0mil|YOffset=0mil|HoleType=Round|Shape=RoundedRectangle|*
%AMROUNDEDRECTD63*
21,1,0.05650,0.03366,0,0,270.0*
21,1,0.04476,0.04540,0,0,270.0*
1,1,0.01174,-0.01683,-0.02238*
1,1,0.01174,-0.01683,0.02238*
1,1,0.01174,0.01683,0.02238*
1,1,0.01174,0.01683,-0.02238*
%
%ADD63ROUNDEDRECTD63*%
%ADD64R,0.03950X0.02375*%
%ADD65C,0.05524*%
G04:AMPARAMS|DCode=66|XSize=196.85mil|YSize=196.85mil|CornerRadius=8.66mil|HoleSize=0mil|Usage=FLASHONLY|Rotation=180.000|XOffset=0mil|YOffset=0mil|HoleType=Round|Shape=RoundedRectangle|*
%AMROUNDEDRECTD66*
21,1,0.19685,0.17953,0,0,180.0*
21,1,0.17953,0.19685,0,0,180.0*
1,1,0.01732,-0.08976,0.08976*
1,1,0.01732,0.08976,0.08976*
1,1,0.01732,0.08976,-0.08976*
1,1,0.01732,-0.08976,-0.08976*
%
%ADD66ROUNDEDRECTD66*%
G04:AMPARAMS|DCode=67|XSize=106.42mil|YSize=51.31mil|CornerRadius=6.17mil|HoleSize=0mil|Usage=FLASHONLY|Rotation=0.000|XOffset=0mil|YOffset=0mil|HoleType=Round|Shape=RoundedRectangle|*
%AMROUNDEDRECTD67*
21,1,0.10642,0.03898,0,0,0.0*
21,1,0.09409,0.05131,0,0,0.0*
1,1,0.01233,0.04705,-0.01949*
1,1,0.01233,-0.04705,-0.01949*
1,1,0.01233,-0.04705,0.01949*
1,1,0.01233,0.04705,0.01949*
%
%ADD67ROUNDEDRECTD67*%
%ADD68C,0.07493*%
G04:AMPARAMS|DCode=69|XSize=47.37mil|YSize=39.5mil|CornerRadius=0mil|HoleSize=0mil|Usage=FLASHONLY|Rotation=90.000|XOffset=0mil|YOffset=0mil|HoleType=Round|Shape=Octagon|*
%AMOCTAGOND69*
4,1,8,0.00987,0.02368,-0.00987,0.02368,-0.01975,0.01381,-0.01975,-0.01381,-0.00987,-0.02368,0.00987,-0.02368,0.01975,-0.01381,0.01975,0.01381,0.00987,0.02368,0.0*
%
%ADD69OCTAGOND69*%

%ADD70R,0.05524X0.07887*%
%ADD71R,0.03950X0.03950*%
G04:AMPARAMS|DCode=72|XSize=67.06mil|YSize=39.5mil|CornerRadius=4.79mil|HoleSize=0mil|Usage=FLASHONLY|Rotation=180.000|XOffset=0mil|YOffset=0mil|HoleType=Round|Shape=RoundedRectangle|*
%AMROUNDEDRECTD72*
21,1,0.06706,0.02992,0,0,180.0*
21,1,0.05748,0.03950,0,0,180.0*
1,1,0.00957,-0.02874,0.01496*
1,1,0.00957,0.02874,0.01496*
1,1,0.00957,0.02874,-0.01496*
1,1,0.00957,-0.02874,-0.01496*
%
%ADD72ROUNDEDRECTD72*%
%ADD73R,0.03950X0.04737*%
%ADD74C,0.07087*%
G36*
X240753Y118130D02*
X240805Y118120D01*
X240854Y118103D01*
X240901Y118079D01*
X240945Y118050D01*
X240984Y118016D01*
X241019Y117976D01*
X241048Y117933D01*
X241071Y117886D01*
X241088Y117836D01*
X241098Y117785D01*
X241102Y117732D01*
Y114583D01*
X241098Y114530D01*
X241088Y114479D01*
X241071Y114429D01*
X241048Y114382D01*
X241019Y114339D01*
X240984Y114299D01*
X240945Y114265D01*
X240901Y114235D01*
X240854Y114212D01*
X240805Y114196D01*
X240753Y114185D01*
X240701Y114182D01*
X235780D01*
X235727Y114185D01*
X235676Y114196D01*
X235626Y114212D01*
X235579Y114235D01*
X235536Y114265D01*
X235496Y114299D01*
X234512Y115284D01*
X234477Y115323D01*
X234448Y115366D01*
X234425Y115413D01*
X234408Y115463D01*
X234398Y115515D01*
X234394Y115567D01*
Y117732D01*
X234398Y117785D01*
X234408Y117836D01*
X234425Y117886D01*
X234448Y117933D01*
X234477Y117976D01*
X234512Y118016D01*
X234551Y118050D01*
X234595Y118079D01*
X234642Y118103D01*
X234692Y118120D01*
X234743Y118130D01*
X234795Y118133D01*
X240701D01*
X240753Y118130D01*
D02*
G37*
D45*
X235236Y186024D02*
D03*
Y184055D02*
D03*
Y207677D02*
D03*
Y221457D02*
D03*
Y197835D02*
D03*
Y215551D02*
D03*
Y189961D02*
D03*
Y180118D02*
D03*
Y195866D02*
D03*
Y193898D02*
D03*
Y203740D02*
D03*
Y217520D02*
D03*
Y199803D02*
D03*
Y178150D02*
D03*
Y219488D02*
D03*
Y182087D02*
D03*
Y205709D02*
D03*
Y201772D02*
D03*
Y209646D02*
D03*
Y191929D02*
D03*
Y223425D02*
D03*
Y213583D02*
D03*
Y211614D02*
D03*
Y187992D02*
D03*
D46*
X225626Y188000D02*
D03*
X225526Y183500D02*
D03*
X225626Y214000D02*
D03*
Y193000D02*
D03*
Y174500D02*
D03*
X281600Y273000D02*
D03*
Y268000D02*
D03*
X225626Y198000D02*
D03*
X226197Y155113D02*
D03*
Y150813D02*
D03*
X225626Y219000D02*
D03*
Y169500D02*
D03*
Y179000D02*
D03*
X288500Y273000D02*
D03*
Y268000D02*
D03*
X233097Y155113D02*
D03*
Y150813D02*
D03*
X218726Y219000D02*
D03*
Y193000D02*
D03*
Y188000D02*
D03*
Y214000D02*
D03*
Y198000D02*
D03*
X218626Y183500D02*
D03*
X218726Y169500D02*
D03*
Y179000D02*
D03*
Y174500D02*
D03*
D47*
X223138Y206500D02*
D03*
X199126Y170500D02*
D03*
D48*
X133631Y168501D02*
D03*
X143631Y233501D02*
D03*
X163631Y233501D02*
D03*
X143631Y168501D02*
D03*
X123631D02*
D03*
Y233501D02*
D03*
X113631Y168501D02*
D03*
X153631D02*
D03*
X163631D02*
D03*
X173631D02*
D03*
Y233501D02*
D03*
X153631D02*
D03*
X133631D02*
D03*
X113631D02*
D03*
D49*
X203476Y218000D02*
D03*
X289150Y249000D02*
D03*
X270925Y153835D02*
D03*
X255650Y272000D02*
D03*
Y267000D02*
D03*
X271925Y135835D02*
D03*
X152650Y257000D02*
D03*
X203476Y213500D02*
D03*
X289150Y244000D02*
D03*
X210776Y218000D02*
D03*
Y213500D02*
D03*
X278225Y153835D02*
D03*
X279225Y135835D02*
D03*
X145350Y257000D02*
D03*
X248350Y267000D02*
D03*
Y272000D02*
D03*
X281850Y249000D02*
D03*
Y244000D02*
D03*
D50*
X198326Y217300D02*
D03*
X192926D02*
D03*
X195626Y209700D02*
D03*
D51*
X183807Y260500D02*
D03*
X212193Y255500D02*
D03*
X183807Y250500D02*
D03*
Y245500D02*
D03*
Y255500D02*
D03*
X212193Y260500D02*
D03*
Y250500D02*
D03*
Y245500D02*
D03*
D52*
X210150Y170500D02*
D03*
X212114Y206500D02*
D03*
D53*
X287035Y142018D02*
D03*
Y147018D02*
D03*
Y137018D02*
D03*
Y152018D02*
D03*
D54*
X280764Y262000D02*
D03*
Y255405D02*
D03*
X284000D02*
D03*
Y262000D02*
D03*
D55*
X254929Y278744D02*
D03*
X226929D02*
D03*
X243118D02*
D03*
X215118D02*
D03*
X112031Y244224D02*
D03*
X115969D02*
D03*
X219055Y278744D02*
D03*
X222992D02*
D03*
X250992D02*
D03*
X247055D02*
D03*
D56*
X278000Y141600D02*
D03*
X273000D02*
D03*
X256000Y107600D02*
D03*
X251000D02*
D03*
X178500Y245400D02*
D03*
X278000Y148500D02*
D03*
X273000D02*
D03*
X256000Y114500D02*
D03*
X251000D02*
D03*
X178500Y238500D02*
D03*
D57*
X270000Y129650D02*
D03*
X265000D02*
D03*
X217000Y156650D02*
D03*
X212000D02*
D03*
X134000Y250650D02*
D03*
Y243350D02*
D03*
X129000D02*
D03*
Y250650D02*
D03*
X265000Y122350D02*
D03*
X270000D02*
D03*
X217000Y149350D02*
D03*
X212000D02*
D03*
D58*
X265722Y108029D02*
D03*
X263163Y115667D02*
D03*
X260604Y108029D02*
D03*
X268282D02*
D03*
X263163D02*
D03*
X260604Y115667D02*
D03*
X265722D02*
D03*
X268282D02*
D03*
D59*
X149500Y247000D02*
D03*
X140500Y250740D02*
D03*
Y243260D02*
D03*
D60*
X226921Y110252D02*
D03*
Y141748D02*
D03*
X231842D02*
D03*
Y110252D02*
D03*
X212158D02*
D03*
X217079D02*
D03*
X222000D02*
D03*
Y141748D02*
D03*
X217079D02*
D03*
X212158D02*
D03*
D61*
X212126Y197000D02*
D03*
Y188000D02*
D03*
X195126Y189000D02*
D03*
Y180000D02*
D03*
D62*
X204850Y199500D02*
D03*
X195402D02*
D03*
D63*
X158631Y166926D02*
D03*
X118631D02*
D03*
X128631D02*
D03*
X138631D02*
D03*
X148631D02*
D03*
X168631D02*
D03*
Y235076D02*
D03*
X158631D02*
D03*
X148631D02*
D03*
D64*
X245079Y227165D02*
D03*
Y174409D02*
D03*
D65*
X180000Y290000D02*
D03*
X170000D02*
D03*
X150000D02*
D03*
X160000D02*
D03*
X140000D02*
D03*
X130000D02*
D03*
D66*
X222000Y126000D02*
D03*
D67*
X165354Y204961D02*
D03*
Y197087D02*
D03*
D68*
X119881Y206001D02*
D03*
X109881Y196001D02*
D03*
Y206001D02*
D03*
X119881Y196001D02*
D03*
D69*
X204126Y188012D02*
D03*
D70*
X121087Y259480D02*
D03*
X106913D02*
D03*
X232047Y294000D02*
D03*
X210000D02*
D03*
X238000D02*
D03*
X260047D02*
D03*
D71*
X238043Y116157D02*
D03*
D72*
X206252Y135843D02*
D03*
Y130921D02*
D03*
Y126000D02*
D03*
Y121079D02*
D03*
Y116157D02*
D03*
X237748Y121079D02*
D03*
Y126000D02*
D03*
Y130921D02*
D03*
Y135843D02*
D03*
D73*
X204126Y176988D02*
D03*
D74*
X288929Y258703D02*
D03*
M02*
