G04*
G04 #@! TF.GenerationSoftware,Altium Limited,Altium Designer,24.8.2 (39)*
G04*
G04 Layer_Color=255*
%FSLAX25Y25*%
%MOIN*%
G70*
G04*
G04 #@! TF.SameCoordinates,4D4EA92B-AFD7-4347-A045-B9991782E9FC*
G04*
G04*
G04 #@! TF.FilePolarity,Positive*
G04*
G01*
G75*
%ADD19R,0.03150X0.01181*%
G04:AMPARAMS|DCode=20|XSize=35mil|YSize=30mil|CornerRadius=7.5mil|HoleSize=0mil|Usage=FLASHONLY|Rotation=180.000|XOffset=0mil|YOffset=0mil|HoleType=Round|Shape=RoundedRectangle|*
%AMROUNDEDRECTD20*
21,1,0.03500,0.01500,0,0,180.0*
21,1,0.02000,0.03000,0,0,180.0*
1,1,0.01500,-0.01000,0.00750*
1,1,0.01500,0.01000,0.00750*
1,1,0.01500,0.01000,-0.00750*
1,1,0.01500,-0.01000,-0.00750*
%
%ADD20ROUNDEDRECTD20*%
G04:AMPARAMS|DCode=21|XSize=39.37mil|YSize=31.5mil|CornerRadius=0mil|HoleSize=0mil|Usage=FLASHONLY|Rotation=0.000|XOffset=0mil|YOffset=0mil|HoleType=Round|Shape=Octagon|*
%AMOCTAGOND21*
4,1,8,0.01968,-0.00787,0.01968,0.00787,0.01181,0.01575,-0.01181,0.01575,-0.01968,0.00787,-0.01968,-0.00787,-0.01181,-0.01575,0.01181,-0.01575,0.01968,-0.00787,0.0*
%
%ADD21OCTAGOND21*%

G04:AMPARAMS|DCode=22|XSize=80mil|YSize=37.4mil|CornerRadius=1.87mil|HoleSize=0mil|Usage=FLASHONLY|Rotation=270.000|XOffset=0mil|YOffset=0mil|HoleType=Round|Shape=RoundedRectangle|*
%AMROUNDEDRECTD22*
21,1,0.08000,0.03366,0,0,270.0*
21,1,0.07626,0.03740,0,0,270.0*
1,1,0.00374,-0.01683,-0.03813*
1,1,0.00374,-0.01683,0.03813*
1,1,0.00374,0.01683,0.03813*
1,1,0.00374,0.01683,-0.03813*
%
%ADD22ROUNDEDRECTD22*%
G04:AMPARAMS|DCode=23|XSize=40mil|YSize=31.5mil|CornerRadius=7.87mil|HoleSize=0mil|Usage=FLASHONLY|Rotation=0.000|XOffset=0mil|YOffset=0mil|HoleType=Round|Shape=RoundedRectangle|*
%AMROUNDEDRECTD23*
21,1,0.04000,0.01575,0,0,0.0*
21,1,0.02425,0.03150,0,0,0.0*
1,1,0.01575,0.01213,-0.00787*
1,1,0.01575,-0.01213,-0.00787*
1,1,0.01575,-0.01213,0.00787*
1,1,0.01575,0.01213,0.00787*
%
%ADD23ROUNDEDRECTD23*%
%ADD24R,0.02362X0.03937*%
G04:AMPARAMS|DCode=25|XSize=63.39mil|YSize=22.84mil|CornerRadius=1.71mil|HoleSize=0mil|Usage=FLASHONLY|Rotation=180.000|XOffset=0mil|YOffset=0mil|HoleType=Round|Shape=RoundedRectangle|*
%AMROUNDEDRECTD25*
21,1,0.06339,0.01941,0,0,180.0*
21,1,0.05996,0.02284,0,0,180.0*
1,1,0.00343,-0.02998,0.00971*
1,1,0.00343,0.02998,0.00971*
1,1,0.00343,0.02998,-0.00971*
1,1,0.00343,-0.02998,-0.00971*
%
%ADD25ROUNDEDRECTD25*%
%ADD26R,0.03937X0.03150*%
%ADD27R,0.05512X0.02756*%
%ADD28R,0.02055X0.02854*%
%ADD29R,0.02362X0.06102*%
G04:AMPARAMS|DCode=30|XSize=35mil|YSize=30mil|CornerRadius=7.5mil|HoleSize=0mil|Usage=FLASHONLY|Rotation=270.000|XOffset=0mil|YOffset=0mil|HoleType=Round|Shape=RoundedRectangle|*
%AMROUNDEDRECTD30*
21,1,0.03500,0.01500,0,0,270.0*
21,1,0.02000,0.03000,0,0,270.0*
1,1,0.01500,-0.00750,-0.01000*
1,1,0.01500,-0.00750,0.01000*
1,1,0.01500,0.00750,0.01000*
1,1,0.01500,0.00750,-0.01000*
%
%ADD30ROUNDEDRECTD30*%
G04:AMPARAMS|DCode=31|XSize=40mil|YSize=31.5mil|CornerRadius=7.87mil|HoleSize=0mil|Usage=FLASHONLY|Rotation=270.000|XOffset=0mil|YOffset=0mil|HoleType=Round|Shape=RoundedRectangle|*
%AMROUNDEDRECTD31*
21,1,0.04000,0.01575,0,0,270.0*
21,1,0.02425,0.03150,0,0,270.0*
1,1,0.01575,-0.00787,-0.01213*
1,1,0.01575,-0.00787,0.01213*
1,1,0.01575,0.00787,0.01213*
1,1,0.01575,0.00787,-0.01213*
%
%ADD31ROUNDEDRECTD31*%
G04:AMPARAMS|DCode=32|XSize=19.29mil|YSize=17.72mil|CornerRadius=2.22mil|HoleSize=0mil|Usage=FLASHONLY|Rotation=90.000|XOffset=0mil|YOffset=0mil|HoleType=Round|Shape=RoundedRectangle|*
%AMROUNDEDRECTD32*
21,1,0.01929,0.01329,0,0,90.0*
21,1,0.01486,0.01772,0,0,90.0*
1,1,0.00443,0.00664,0.00743*
1,1,0.00443,0.00664,-0.00743*
1,1,0.00443,-0.00664,-0.00743*
1,1,0.00443,-0.00664,0.00743*
%
%ADD32ROUNDEDRECTD32*%
%ADD33R,0.04724X0.01968*%
G04:AMPARAMS|DCode=35|XSize=50mil|YSize=50mil|CornerRadius=12.5mil|HoleSize=0mil|Usage=FLASHONLY|Rotation=180.000|XOffset=0mil|YOffset=0mil|HoleType=Round|Shape=RoundedRectangle|*
%AMROUNDEDRECTD35*
21,1,0.05000,0.02500,0,0,180.0*
21,1,0.02500,0.05000,0,0,180.0*
1,1,0.02500,-0.01250,0.01250*
1,1,0.02500,0.01250,0.01250*
1,1,0.02500,0.01250,-0.01250*
1,1,0.02500,-0.01250,-0.01250*
%
%ADD35ROUNDEDRECTD35*%
%ADD36R,0.06299X0.13780*%
G04:AMPARAMS|DCode=37|XSize=48.5mil|YSize=37.4mil|CornerRadius=1.87mil|HoleSize=0mil|Usage=FLASHONLY|Rotation=270.000|XOffset=0mil|YOffset=0mil|HoleType=Round|Shape=RoundedRectangle|*
%AMROUNDEDRECTD37*
21,1,0.04850,0.03366,0,0,270.0*
21,1,0.04476,0.03740,0,0,270.0*
1,1,0.00374,-0.01683,-0.02238*
1,1,0.00374,-0.01683,0.02238*
1,1,0.00374,0.01683,0.02238*
1,1,0.00374,0.01683,-0.02238*
%
%ADD37ROUNDEDRECTD37*%
%ADD38R,0.03150X0.01575*%
G04:AMPARAMS|DCode=39|XSize=98.43mil|YSize=43.31mil|CornerRadius=2.17mil|HoleSize=0mil|Usage=FLASHONLY|Rotation=0.000|XOffset=0mil|YOffset=0mil|HoleType=Round|Shape=RoundedRectangle|*
%AMROUNDEDRECTD39*
21,1,0.09843,0.03898,0,0,0.0*
21,1,0.09409,0.04331,0,0,0.0*
1,1,0.00433,0.04705,-0.01949*
1,1,0.00433,-0.04705,-0.01949*
1,1,0.00433,-0.04705,0.01949*
1,1,0.00433,0.04705,0.01949*
%
%ADD39ROUNDEDRECTD39*%
%ADD40C,0.06693*%
G04:AMPARAMS|DCode=41|XSize=39.37mil|YSize=31.5mil|CornerRadius=0mil|HoleSize=0mil|Usage=FLASHONLY|Rotation=90.000|XOffset=0mil|YOffset=0mil|HoleType=Round|Shape=Octagon|*
%AMOCTAGOND41*
4,1,8,0.00787,0.01968,-0.00787,0.01968,-0.01575,0.01181,-0.01575,-0.01181,-0.00787,-0.01968,0.00787,-0.01968,0.01575,-0.01181,0.01575,0.01181,0.00787,0.01968,0.0*
%
%ADD41OCTAGOND41*%

%ADD42R,0.04724X0.07087*%
%ADD44R,0.03150X0.03937*%
G04:AMPARAMS|DCode=75|XSize=59.06mil|YSize=31.5mil|CornerRadius=0.79mil|HoleSize=0mil|Usage=FLASHONLY|Rotation=270.000|XOffset=0mil|YOffset=0mil|HoleType=Round|Shape=RoundedRectangle|*
%AMROUNDEDRECTD75*
21,1,0.05906,0.02992,0,0,270.0*
21,1,0.05748,0.03150,0,0,270.0*
1,1,0.00158,-0.01496,-0.02874*
1,1,0.00158,-0.01496,0.02874*
1,1,0.00158,0.01496,0.02874*
1,1,0.00158,0.01496,-0.02874*
%
%ADD75ROUNDEDRECTD75*%
%ADD76R,0.00394X0.00394*%
%ADD77C,0.04724*%
G04:AMPARAMS|DCode=78|XSize=188.98mil|YSize=188.98mil|CornerRadius=4.72mil|HoleSize=0mil|Usage=FLASHONLY|Rotation=180.000|XOffset=0mil|YOffset=0mil|HoleType=Round|Shape=RoundedRectangle|*
%AMROUNDEDRECTD78*
21,1,0.18898,0.17953,0,0,180.0*
21,1,0.17953,0.18898,0,0,180.0*
1,1,0.00945,-0.08976,0.08976*
1,1,0.00945,0.08976,0.08976*
1,1,0.00945,0.08976,-0.08976*
1,1,0.00945,-0.08976,-0.08976*
%
%ADD78ROUNDEDRECTD78*%
%ADD79R,0.03150X0.03150*%
G04:AMPARAMS|DCode=80|XSize=59.06mil|YSize=31.5mil|CornerRadius=0.79mil|HoleSize=0mil|Usage=FLASHONLY|Rotation=180.000|XOffset=0mil|YOffset=0mil|HoleType=Round|Shape=RoundedRectangle|*
%AMROUNDEDRECTD80*
21,1,0.05906,0.02992,0,0,180.0*
21,1,0.05748,0.03150,0,0,180.0*
1,1,0.00158,-0.02874,0.01496*
1,1,0.00158,0.02874,0.01496*
1,1,0.00158,0.02874,-0.01496*
1,1,0.00158,-0.02874,-0.01496*
%
%ADD80ROUNDEDRECTD80*%
%ADD84C,0.01968*%
D19*
X235236Y186024D02*
D03*
Y184055D02*
D03*
Y207677D02*
D03*
Y221457D02*
D03*
Y197835D02*
D03*
Y215551D02*
D03*
Y189961D02*
D03*
Y180118D02*
D03*
Y195866D02*
D03*
Y193898D02*
D03*
Y203740D02*
D03*
Y217520D02*
D03*
Y199803D02*
D03*
Y178150D02*
D03*
Y219488D02*
D03*
Y182087D02*
D03*
Y205709D02*
D03*
Y201772D02*
D03*
Y209646D02*
D03*
Y191929D02*
D03*
Y223425D02*
D03*
Y213583D02*
D03*
Y211614D02*
D03*
Y187992D02*
D03*
D20*
X225626Y188000D02*
D03*
X225526Y183500D02*
D03*
X225626Y214000D02*
D03*
Y193000D02*
D03*
Y174500D02*
D03*
X281600Y273000D02*
D03*
Y268000D02*
D03*
X225626Y198000D02*
D03*
X226197Y155113D02*
D03*
Y150813D02*
D03*
X225626Y219000D02*
D03*
Y169500D02*
D03*
Y179000D02*
D03*
X288500Y273000D02*
D03*
Y268000D02*
D03*
X233097Y155113D02*
D03*
Y150813D02*
D03*
X218726Y219000D02*
D03*
Y193000D02*
D03*
Y188000D02*
D03*
Y214000D02*
D03*
Y198000D02*
D03*
X218626Y183500D02*
D03*
X218726Y169500D02*
D03*
Y179000D02*
D03*
Y174500D02*
D03*
D21*
X223138Y206500D02*
D03*
X199126Y170500D02*
D03*
D22*
X133631Y168501D02*
D03*
X143631Y233501D02*
D03*
X163631Y233501D02*
D03*
X143631Y168501D02*
D03*
X123631D02*
D03*
Y233501D02*
D03*
X113631Y168501D02*
D03*
X153631D02*
D03*
X163631D02*
D03*
X173631D02*
D03*
Y233501D02*
D03*
X153631D02*
D03*
X133631D02*
D03*
X113631D02*
D03*
D23*
X203476Y218000D02*
D03*
X289150Y249000D02*
D03*
X270925Y153835D02*
D03*
X255650Y272000D02*
D03*
Y267000D02*
D03*
X271925Y135835D02*
D03*
X152650Y257000D02*
D03*
X203476Y213500D02*
D03*
X289150Y244000D02*
D03*
X210776Y218000D02*
D03*
Y213500D02*
D03*
X278225Y153835D02*
D03*
X279225Y135835D02*
D03*
X145350Y257000D02*
D03*
X248350Y267000D02*
D03*
Y272000D02*
D03*
X281850Y249000D02*
D03*
Y244000D02*
D03*
D24*
X198326Y217300D02*
D03*
X192926D02*
D03*
X195626Y209700D02*
D03*
D25*
X183807Y260500D02*
D03*
X212193Y255500D02*
D03*
X183807Y250500D02*
D03*
Y245500D02*
D03*
Y255500D02*
D03*
X212193Y260500D02*
D03*
Y250500D02*
D03*
Y245500D02*
D03*
D26*
X210150Y170500D02*
D03*
X212114Y206500D02*
D03*
D27*
X287035Y142018D02*
D03*
Y147018D02*
D03*
Y137018D02*
D03*
Y152018D02*
D03*
D28*
X280764Y262000D02*
D03*
Y255405D02*
D03*
X284000D02*
D03*
Y262000D02*
D03*
D29*
X254929Y278744D02*
D03*
X226929D02*
D03*
X243118D02*
D03*
X215118D02*
D03*
X112031Y244224D02*
D03*
X115969D02*
D03*
X219055Y278744D02*
D03*
X222992D02*
D03*
X250992D02*
D03*
X247055D02*
D03*
D30*
X278000Y141600D02*
D03*
X273000D02*
D03*
X256000Y107600D02*
D03*
X251000D02*
D03*
X178500Y245400D02*
D03*
X278000Y148500D02*
D03*
X273000D02*
D03*
X256000Y114500D02*
D03*
X251000D02*
D03*
X178500Y238500D02*
D03*
D31*
X270000Y129650D02*
D03*
X265000D02*
D03*
X217000Y156650D02*
D03*
X212000D02*
D03*
X134000Y250650D02*
D03*
Y243350D02*
D03*
X129000D02*
D03*
Y250650D02*
D03*
X265000Y122350D02*
D03*
X270000D02*
D03*
X217000Y149350D02*
D03*
X212000D02*
D03*
D32*
X265722Y108029D02*
D03*
X263163Y115667D02*
D03*
X260604Y108029D02*
D03*
X268282D02*
D03*
X263163D02*
D03*
X260604Y115667D02*
D03*
X265722D02*
D03*
X268282D02*
D03*
D33*
X149500Y247000D02*
D03*
X140500Y250740D02*
D03*
Y243260D02*
D03*
D35*
X212126Y197000D02*
D03*
Y188000D02*
D03*
X195126Y189000D02*
D03*
Y180000D02*
D03*
D36*
X204850Y199500D02*
D03*
X195402D02*
D03*
D37*
X158631Y166926D02*
D03*
X118631D02*
D03*
X128631D02*
D03*
X138631D02*
D03*
X148631D02*
D03*
X168631D02*
D03*
Y235076D02*
D03*
X158631D02*
D03*
X148631D02*
D03*
D38*
X245079Y227165D02*
D03*
Y174409D02*
D03*
D39*
X165354Y204961D02*
D03*
Y197087D02*
D03*
D40*
X119881Y206001D02*
D03*
X109881Y196001D02*
D03*
Y206001D02*
D03*
X119881Y196001D02*
D03*
D41*
X204126Y188012D02*
D03*
D42*
X121087Y259480D02*
D03*
X106913D02*
D03*
X232047Y294000D02*
D03*
X210000D02*
D03*
X238000D02*
D03*
X260047D02*
D03*
D44*
X204126Y176988D02*
D03*
D75*
X226921Y110252D02*
D03*
Y141748D02*
D03*
X231842D02*
D03*
Y110252D02*
D03*
X212158D02*
D03*
X217079D02*
D03*
X222000D02*
D03*
Y141748D02*
D03*
X217079D02*
D03*
X212158D02*
D03*
D76*
X288880Y261286D02*
D03*
D77*
X180000Y290000D02*
D03*
X170000D02*
D03*
X150000D02*
D03*
X160000D02*
D03*
X140000D02*
D03*
X130000D02*
D03*
D78*
X222000Y126000D02*
D03*
D79*
X238043Y116157D02*
D03*
D80*
X206252Y135843D02*
D03*
Y130921D02*
D03*
Y126000D02*
D03*
Y121079D02*
D03*
Y116157D02*
D03*
X237748Y121079D02*
D03*
Y126000D02*
D03*
Y130921D02*
D03*
Y135843D02*
D03*
D84*
X288929Y258703D02*
D03*
M02*
